# xmcd
#
# Track frame offsets: 
#        150
#        27635
#        45057
#        67255
#        83350
#        100542
#        120137
#        141395
#        158520
#        176260
#        194987
#        215295
#        230497
#        251547
#        268885
#
# Disc length: 3852 seconds
#
# Revision: 1
# Processed by: cddbd v1.5.2PL0 Copyright (c) Steve Scherf et al.
# Submitted via: ExactAudioCopy v0.99pb5
#
DISCID=c50f0a0f
DTITLE=คาราบาว - 20 ปี คาราบาว 1
DYEAR=1900
DGENRE=
TTITLE0=ลุงขี้เมา (ขี้เมา)
TTITLE1=ถึกควายทุย (ขี้เมา)
TTITLE2=มนต์เพลงคาราบาว (ขี้เมา)
TTITLE3=แป๊ะขายขวด (แป๊ะขายขวด)
TTITLE4=ถึกควายทุย 2 (แป๊ะขายขวด)
TTITLE5=กัญชา (แป๊ะขายขวด)
TTITLE6=วณิพก (วณิพก)
TTITLE7=ถึกควายทุย 3 (วณิพก)
TTITLE8=ไม่ไผ่ (วณิพก)
TTITLE9=ท.ทหารอดทน (ท.ทหารอดทน)
TTITLE10=ทินเนอร์ (ท.ทหารอดทน)
TTITLE11=ผู้เฒ่า (ท.ทหารอดทน)
TTITLE12=ขี้เมาใจดี (ถึกฯ 4) (ท.ทหารอดทน)
TTITLE13=ตุ๊กตา (ท.ทหารอดทน)
TTITLE14=คนเก็บฝืน (ท.ทหารอดทน)
EXTD=
EXTT0=
EXTT1=
EXTT2=
EXTT3=
EXTT4=
EXTT5=
EXTT6=
EXTT7=
EXTT8=
EXTT9=
EXTT10=
EXTT11=
EXTT12=
EXTT13=
EXTT14=
PLAYORDER=
